# xmcd
#
# Track frame offsets: 
#        150
#        25865
#        43870
#        60090
#        77702
#        102230
#        119995
#        146472
#        178275
#
# Disc length: 2545 seconds
#
# Revision: 3
# Processed by: cddbd v1.5.2PL0 Copyright (c) Steve Scherf et al.
# Submitted via: ExactAudioCopy v0.95b4
#
DISCID=7a09ef09
DTITLE=Willie Nelson - Sings Kristofferson
DYEAR=1979
DGENRE=Country
TTITLE0=Me And Bobby Mcgee
TTITLE1=Help Me Make It Through The Night
TTITLE2=The Pilgrim: Chapter 33
TTITLE3=Why Me
TTITLE4=For The Good Times
TTITLE5=You Show Me Yours
TTITLE6=Loving Her Was Easier (Than Anything I'll Ever Do Again)
TTITLE7=Sunday Mornin' Comin' Down
TTITLE8=Please Don't Tell Me How The Story Ends
EXTD=
EXTT0=
EXTT1=
EXTT2=
EXTT3=
EXTT4=
EXTT5=
EXTT6=
EXTT7=
EXTT8=
PLAYORDER=
